<svg width="16" height="16" viewBox="0 0 16 16" fill="none" xmlns="http://www.w3.org/2000/svg">
<g clip-path="url(#clip0_128_255)">
<path d="M14.4468 1.95937C12.7436 0.509367 10.1968 0.749992 8.61552 2.38124L7.9999 3.01874L7.38427 2.38437C6.10927 1.06562 3.5374 0.271867 1.55302 1.95937C-0.40948 3.63437 -0.512605 6.64062 1.24365 8.45312L7.29052 14.6969C7.48427 14.8969 7.74052 15 7.99677 15C8.25302 15 8.50927 14.9 8.70302 14.6969L14.7499 8.45312C16.5124 6.64062 16.4093 3.63437 14.4468 1.95937ZM14.0374 7.75937L8.01239 14.0031L1.9624 7.75937C0.762395 6.52187 0.512395 4.16249 2.20302 2.72187C3.91552 1.25937 5.92802 2.31874 6.66552 3.08124L7.9999 4.45937L9.33427 3.08124C10.0593 2.33124 12.0905 1.26874 13.7968 2.72187C15.4843 4.15937 15.2374 6.51874 14.0374 7.75937Z" fill="#9B9FA9"/>
</g>
<defs>
<clipPath id="clip0_128_255">
<rect width="16" height="16" fill="white"/>
</clipPath>
</defs>
</svg>
