<svg width="17" height="17" viewBox="0 0 17 17" fill="none" xmlns="http://www.w3.org/2000/svg">
<g clip-path="url(#clip0_141_43)">
<path opacity="0.4" d="M8.5 0.265625C3.95117 0.265625 0.265625 3.95383 0.265625 8.5C0.265625 13.0462 3.95117 16.7344 8.5 16.7344C13.0488 16.7344 16.7344 13.0488 16.7344 8.5C16.7344 3.95117 13.0488 0.265625 8.5 0.265625ZM8.5 3.91797C8.77581 3.91797 9.04543 3.99976 9.27476 4.15299C9.50409 4.30622 9.68283 4.52402 9.78838 4.77884C9.89393 5.03365 9.92154 5.31405 9.86774 5.58456C9.81393 5.85507 9.68111 6.10355 9.48608 6.29858C9.29105 6.49361 9.04257 6.62643 8.77206 6.68024C8.50155 6.73404 8.22115 6.70643 7.96634 6.60088C7.71152 6.49533 7.49372 6.31659 7.34049 6.08726C7.18726 5.85793 7.10547 5.58831 7.10547 5.3125C7.10547 4.94265 7.25239 4.58794 7.51392 4.32642C7.77544 4.06489 8.13015 3.91797 8.5 3.91797ZM10.3594 12.3516C10.3594 12.4572 10.3174 12.5586 10.2427 12.6333C10.168 12.708 10.0666 12.75 9.96094 12.75H7.03906C6.93339 12.75 6.83205 12.708 6.75732 12.6333C6.6826 12.5586 6.64062 12.4572 6.64062 12.3516V11.5547C6.64062 11.449 6.6826 11.3477 6.75732 11.2729C6.83205 11.1982 6.93339 11.1562 7.03906 11.1562H7.4375V9.03125H7.03906C6.93339 9.03125 6.83205 8.98927 6.75732 8.91455C6.6826 8.83983 6.64062 8.73848 6.64062 8.63281V7.83594C6.64062 7.73027 6.6826 7.62892 6.75732 7.5542C6.83205 7.47948 6.93339 7.4375 7.03906 7.4375H9.16406C9.26973 7.4375 9.37108 7.47948 9.4458 7.5542C9.52052 7.62892 9.5625 7.73027 9.5625 7.83594V11.1562H9.96094C10.0666 11.1562 10.168 11.1982 10.2427 11.2729C10.3174 11.3477 10.3594 11.449 10.3594 11.5547V12.3516Z" fill="#383C43"/>
<path d="M8.5 6.70703C8.77581 6.70703 9.04543 6.62525 9.27476 6.47201C9.50409 6.31878 9.68283 6.10098 9.78838 5.84617C9.89393 5.59135 9.92154 5.31095 9.86774 5.04044C9.81393 4.76993 9.68111 4.52145 9.48608 4.32642C9.29105 4.13139 9.04257 3.99857 8.77206 3.94476C8.50155 3.89096 8.22115 3.91857 7.96634 4.02412C7.71152 4.12967 7.49372 4.30841 7.34049 4.53774C7.18726 4.76707 7.10547 5.03669 7.10547 5.3125C7.10547 5.68235 7.25239 6.03706 7.51392 6.29858C7.77544 6.56011 8.13015 6.70703 8.5 6.70703ZM9.96094 11.1563H9.5625V7.83594C9.5625 7.73027 9.52052 7.62892 9.4458 7.5542C9.37108 7.47948 9.26973 7.4375 9.16406 7.4375H7.03906C6.93339 7.4375 6.83205 7.47948 6.75732 7.5542C6.6826 7.62892 6.64062 7.73027 6.64062 7.83594V8.63282C6.64062 8.73849 6.6826 8.83983 6.75732 8.91455C6.83205 8.98928 6.93339 9.03125 7.03906 9.03125H7.4375V11.1563H7.03906C6.93339 11.1563 6.83205 11.1982 6.75732 11.273C6.6826 11.3477 6.64062 11.449 6.64062 11.5547V12.3516C6.64062 12.4572 6.6826 12.5586 6.75732 12.6333C6.83205 12.708 6.93339 12.75 7.03906 12.75H9.96094C10.0666 12.75 10.168 12.708 10.2427 12.6333C10.3174 12.5586 10.3594 12.4572 10.3594 12.3516V11.5547C10.3594 11.449 10.3174 11.3477 10.2427 11.273C10.168 11.1982 10.0666 11.1563 9.96094 11.1563Z" fill="#383C43"/>
</g>
<defs>
<clipPath id="clip0_141_43">
<rect width="17" height="17" fill="white"/>
</clipPath>
</defs>
</svg>
